<svg xmlns="http://www.w3.org/2000/svg" viewBox="0 0 512 512" width="512" height="512">
  <g fill="black" stroke="none" fill-rule="evenodd">
    <path d="M 248.00 504.50 L 247.00 504.50 L 246.00 504.50 L 245.00 504.50 L 244.00 504.50 L 243.00 504.50 L 242.50 504.00 L 242.00 503.50 L 241.00 503.50 L 240.50 503.00 L 240.00 502.50 L 239.50 502.00 L 239.50 501.00 L 239.00 500.50 L 238.50 500.00 L 238.00 499.50 L 237.50 499.00 L 237.00 498.50 L 236.50 498.00 L 236.00 497.50 L 235.50 497.00 L 235.00 496.50 L 234.50 496.00 L 234.00 495.50 L 233.50 495.00 L 233.50 494.00 L 233.00 493.50 L 232.50 493.00 L 232.00 492.50 L 231.50 492.00 L 231.00 491.50 L 230.00 491.50 L 229.50 491.00 L 229.00 490.50 L 228.50 490.00 L 228.00 489.50 L 227.00 489.50 L 226.50 489.00 L 226.50 488.00 L 226.00 487.50 L 225.50 487.00 L 225.00 486.50 L 224.50 486.00 L 224.00 485.50 L 223.00 485.50 L 222.00 485.50 L 221.50 485.00 L 221.00 484.50 L 220.00 484.50 L 219.00 484.50 L 218.50 484.00 L 218.00 483.50 L 217.00 483.50 L 216.50 483.00 L 216.00 482.50 L 215.50 482.00 L 215.00 481.50 L 214.50 481.00 L 214.00 480.50 L 213.50 480.00 L 213.00 479.50 L 212.50 479.00 L 212.00 478.50 L 211.00 478.50 L 210.50 478.00 L 210.00 477.50 L 209.50 477.00 L 209.00 476.50 L 208.50 476.00 L 208.00 475.50 L 207.50 475.00 L 207.00 474.50 L 206.50 474.00 L 206.50 473.00 L 206.00 472.50 L 205.50 472.00 L 205.00 471.50 L 204.50 471.00 L 204.00 470.50 L 203.00 470.50 L 202.50 470.00 L 202.00 469.50 L 201.50 469.00 L 201.50 468.00 L 201.00 467.50 L 200.50 467.00 L 200.00 466.50 L 199.50 466.00 L 199.00 465.50 L 198.50 465.00 L 198.00 464.50 L 197.00 464.50 L 196.50 464.00 L 196.00 463.50 L 195.50 463.00 L 195.00 462.50 L 194.50 462.00 L 194.00 461.50 L 193.50 461.00 L 193.00 460.50 L 192.50 460.00 L 192.00 459.50 L 191.50 459.00 L 191.00 458.50 L 190.00 458.50 L 189.50 458.00 L 189.00 457.50 L 188.50 457.00 L 188.00 456.50 L 187.50 456.00 L 187.00 455.50 L 186.50 455.00 L 186.00 454.50 L 185.50 454.00 L 185.00 453.50 L 184.50 453.00 L 184.00 452.50 L 183.50 452.00 L 183.00 451.50 L 182.00 451.50 L 181.50 451.00 L 181.00 450.50 L 180.00 450.50 L 179.50 450.00 L 179.00 449.50 L 178.00 449.50 L 177.50 449.00 L 177.00 448.50 L 176.50 448.00 L 176.00 447.50 L 175.50 447.00 L 175.00 446.50 L 174.50 446.00 L 174.00 445.50 L 173.50 445.00 L 173.00 444.50 L 172.00 444.50 L 171.50 444.00 L 171.00 443.50 L 170.50 443.00 L 170.00 442.50 L 169.50 442.00 L 169.00 441.50 L 168.50 441.00 L 168.00 440.50 L 167.50 440.00 L 167.00 439.50 L 166.50 439.00 L 166.00 438.50 L 165.00 438.50 L 164.50 438.00 L 164.00 437.50 L 163.00 437.50 L 162.50 437.00 L 162.00 436.50 L 161.50 436.00 L 161.00 435.50 L 160.50 435.00 L 160.00 434.50 L 159.50 434.00 L 159.00 433.50 L 158.50 433.00 L 158.00 432.50 L 157.50 432.00 L 157.00 431.50 L 156.50 431.00 L 156.00 430.50 L 155.00 430.50 L 154.50 430.00 L 154.50 429.00 L 154.00 428.50 L 153.50 428.00 L 153.00 427.50 L 152.50 427.00 L 152.50 426.00 L 152.00 425.50 L 151.50 425.00 L 151.00 424.50 L 150.00 424.50 L 149.50 424.00 L 149.00 423.50 L 148.50 423.00 L 148.00 422.50 L 147.50 422.00 L 147.00 421.50 L 146.50 421.00 L 146.00 420.50 L 145.50 420.00 L 145.00 419.50 L 144.50 419.00 L 144.00 418.50 L 143.50 418.00 L 143.00 417.50 L 142.00 417.50 L 141.50 417.00 L 141.00 416.50 L 140.00 416.50 L 139.50 416.00 L 139.50 415.00 L 139.00 414.50 L 138.50 414.00 L 138.00 413.50 L 137.50 413.00 L 137.00 412.50 L 136.00 412.50 L 135.50 412.00 L 135.00 411.50 L 134.00 411.50 L 133.50 411.00 L 133.00 410.50 L 132.00 410.50 L 131.50 410.00 L 131.00 409.50 L 130.00 409.50 L 129.50 409.00 L 129.00 408.50 L 128.50 408.00 L 128.50 407.00 L 128.00 406.50 L 127.50 406.00 L 127.00 405.50 L 126.00 405.50 L 125.50 405.00 L 125.00 404.50 L 124.50 404.00 L 124.00 403.50 L 123.00 403.50 L 122.50 403.00 L 122.00 402.50 L 121.50 402.00 L 121.00 401.50 L 120.50 401.00 L 120.00 400.50 L 119.50 400.00 L 119.00 399.50 L 118.50 399.00 L 118.00 398.50 L 117.50 398.00 L 117.00 397.50 L 116.50 397.00 L 116.00 396.50 L 115.50 396.00 L 115.00 395.50 L 114.50 395.00 L 114.00 394.50 L 113.50 394.00 L 113.00 393.50 L 112.50 393.00 L 112.00 392.50 L 111.50 392.00 L 111.00 391.50 L 110.50 391.00 L 110.00 390.50 L 109.00 390.50 L 108.50 390.00 L 108.00 389.50 L 107.50 389.00 L 107.00 388.50 L 106.50 388.00 L 106.00 387.50 L 105.50 387.00 L 105.50 386.00 L 105.00 385.50 L 104.50 385.00 L 104.00 384.50 L 103.00 384.50 L 102.50 384.00 L 102.00 383.50 L 101.00 383.50 L 100.50 383.00 L 100.50 382.00 L 100.00 381.50 L 99.50 381.00 L 99.00 380.50 L 98.50 380.00 L 98.00 379.50 L 97.50 379.00 L 97.00 378.50 L 96.00 378.50 L 95.50 378.00 L 95.00 377.50 L 94.00 377.50 L 93.50 377.00 L 93.00 376.50 L 92.00 376.50 L 91.50 376.00 L 91.00 375.50 L 90.50 375.00 L 90.50 374.00 L 90.00 373.50 L 89.00 373.50 L 88.50 373.00 L 88.00 372.50 L 87.50 372.00 L 87.00 371.50 L 86.00 371.50 L 85.50 371.00 L 85.00 370.50 L 84.00 370.50 L 83.50 370.00 L 83.00 369.50 L 82.50 369.00 L 82.00 368.50 L 81.50 368.00 L 81.00 367.50 L 80.50 367.00 L 80.00 366.50 L 79.50 366.00 L 79.50 365.00 L 79.00 364.50 L 78.00 364.50 L 77.50 364.00 L 77.00 363.50 L 76.50 363.00 L 76.00 362.50 L 75.50 362.00 L 75.00 361.50 L 74.50 361.00 L 74.00 360.50 L 73.50 360.00 L 73.00 359.50 L 72.50 359.00 L 72.00 358.50 L 71.50 358.00 L 71.00 357.50 L 70.00 357.50 L 69.50 357.00 L 69.00 356.50 L 68.50 356.00 L 68.00 355.50 L 67.50 355.00 L 67.50 354.00 L 67.00 353.50 L 66.50 353.00 L 66.00 352.50 L 65.50 352.00 L 65.00 351.50 L 64.00 351.50 L 63.50 351.00 L 63.00 350.50 L 62.00 350.50 L 61.50 350.00 L 61.00 349.50 L 60.50 349.00 L 60.00 348.50 L 59.50 348.00 L 59.00 347.50 L 58.50 347.00 L 58.50 346.00 L 58.00 345.50 L 57.50 345.00 L 57.00 344.50 L 56.50 344.00 L 56.00 343.50 L 55.00 343.50 L 54.50 343.00 L 54.00 342.50 L 53.00 342.50 L 52.50 342.00 L 52.50 341.00 L 52.50 340.00 L 52.50 339.00 L 52.50 338.00 L 52.50 337.00 L 52.50 336.00 L 52.50 335.00 L 52.50 334.00 L 52.50 333.00 L 52.50 332.00 L 52.50 331.00 L 52.50 330.00 L 52.50 329.00 L 52.50 328.00 L 52.50 327.00 L 52.50 326.00 L 52.50 325.00 L 52.50 324.00 L 52.50 323.00 L 52.50 322.00 L 52.50 321.00 L 52.50 320.00 L 52.50 319.00 L 52.50 318.00 L 52.50 317.00 L 52.50 316.00 L 52.50 315.00 L 52.50 314.00 L 52.50 313.00 L 52.50 312.00 L 52.50 311.00 L 52.50 310.00 L 52.50 309.00 L 52.50 308.00 L 52.50 307.00 L 52.50 306.00 L 52.50 305.00 L 52.50 304.00 L 52.50 303.00 L 52.50 302.00 L 52.50 301.00 L 52.50 300.00 L 52.50 299.00 L 52.50 298.00 L 52.50 297.00 L 52.50 296.00 L 52.50 295.00 L 52.50 294.00 L 52.50 293.00 L 52.50 292.00 L 52.50 291.00 L 52.50 290.00 L 52.50 289.00 L 52.50 288.00 L 52.50 287.00 L 52.50 286.00 L 52.50 285.00 L 52.50 284.00 L 52.50 283.00 L 52.50 282.00 L 52.50 281.00 L 52.50 280.00 L 52.50 279.00 L 52.50 278.00 L 52.50 277.00 L 52.50 276.00 L 52.50 275.00 L 52.50 274.00 L 52.50 273.00 L 52.50 272.00 L 52.50 271.00 L 52.50 270.00 L 52.50 269.00 L 52.50 268.00 L 52.50 267.00 L 52.50 266.00 L 52.50 265.00 L 52.50 264.00 L 52.50 263.00 L 52.50 262.00 L 52.50 261.00 L 52.50 260.00 L 52.50 259.00 L 52.50 258.00 L 52.50 257.00 L 52.50 256.00 L 52.50 255.00 L 52.50 254.00 L 52.50 253.00 L 52.50 252.00 L 52.50 251.00 L 52.50 250.00 L 52.50 249.00 L 52.50 248.00 L 52.50 247.00 L 52.50 246.00 L 52.50 245.00 L 52.50 244.00 L 52.50 243.00 L 52.50 242.00 L 52.50 241.00 L 52.50 240.00 L 52.50 239.00 L 52.50 238.00 L 52.50 237.00 L 52.50 236.00 L 52.50 235.00 L 52.50 234.00 L 52.50 233.00 L 52.50 232.00 L 52.50 231.00 L 52.50 230.00 L 52.50 229.00 L 52.50 228.00 L 52.50 227.00 L 52.50 226.00 L 52.50 225.00 L 52.50 224.00 L 52.50 223.00 L 52.50 222.00 L 52.50 221.00 L 52.50 220.00 L 52.50 219.00 L 52.50 218.00 L 52.50 217.00 L 52.50 216.00 L 52.50 215.00 L 52.50 214.00 L 52.50 213.00 L 52.50 212.00 L 52.50 211.00 L 52.50 210.00 L 52.50 209.00 L 52.50 208.00 L 52.50 207.00 L 52.50 206.00 L 52.50 205.00 L 52.50 204.00 L 52.50 203.00 L 52.50 202.00 L 52.50 201.00 L 52.50 200.00 L 52.50 199.00 L 52.50 198.00 L 52.50 197.00 L 52.50 196.00 L 52.50 195.00 L 52.50 194.00 L 52.50 193.00 L 52.50 192.00 L 52.50 191.00 L 52.50 190.00 L 52.50 189.00 L 52.50 188.00 L 52.50 187.00 L 52.50 186.00 L 52.50 185.00 L 52.50 184.00 L 52.50 183.00 L 52.50 182.00 L 52.50 181.00 L 52.50 180.00 L 52.50 179.00 L 52.50 178.00 L 52.50 177.00 L 52.50 176.00 L 52.50 175.00 L 52.50 174.00 L 52.50 173.00 L 52.50 172.00 L 52.50 171.00 L 52.50 170.00 L 52.50 169.00 L 52.50 168.00 L 52.50 167.00 L 52.50 166.00 L 52.50 165.00 L 52.50 164.00 L 52.50 163.00 L 52.50 162.00 L 52.50 161.00 L 52.50 160.00 L 52.50 159.00 L 52.50 158.00 L 52.50 157.00 L 52.50 156.00 L 52.50 155.00 L 52.50 154.00 L 52.50 153.00 L 52.50 152.00 L 52.50 151.00 L 52.50 150.00 L 52.50 149.00 L 52.50 148.00 L 52.50 147.00 L 52.50 146.00 L 52.50 145.00 L 52.50 144.00 L 52.50 143.00 L 52.50 142.00 L 52.50 141.00 L 52.50 140.00 L 52.50 139.00 L 52.50 138.00 L 52.50 137.00 L 52.50 136.00 L 52.50 135.00 L 52.50 134.00 L 52.50 133.00 L 52.50 132.00 L 52.50 131.00 L 52.50 130.00 L 52.50 129.00 L 52.50 128.00 L 52.50 127.00 L 52.50 126.00 L 52.50 125.00 L 52.50 124.00 L 52.50 123.00 L 52.50 122.00 L 52.50 121.00 L 52.50 120.00 L 52.50 119.00 L 52.50 118.00 L 52.50 117.00 L 52.50 116.00 L 52.50 115.00 L 52.50 114.00 L 52.50 113.00 L 52.50 112.00 L 52.50 111.00 L 52.50 110.00 L 52.50 109.00 L 52.50 108.00 L 52.50 107.00 L 52.50 106.00 L 52.50 105.00 L 52.50 104.00 L 52.50 103.00 L 52.50 102.00 L 52.50 101.00 L 52.50 100.00 L 52.50 99.00 L 52.50 98.00 L 52.50 97.00 L 52.50 96.00 L 52.50 95.00 L 52.50 94.00 L 52.50 93.00 L 52.50 92.00 L 52.50 91.00 L 52.50 90.00 L 52.50 89.00 L 52.50 88.00 L 52.50 87.00 L 52.50 86.00 L 52.50 85.00 L 52.50 84.00 L 52.50 83.00 L 52.50 82.00 L 52.50 81.00 L 52.50 80.00 L 52.50 79.00 L 52.50 78.00 L 52.50 77.00 L 52.50 76.00 L 52.50 75.00 L 52.50 74.00 L 52.50 73.00 L 52.50 72.00 L 52.50 71.00 L 52.50 70.00 L 52.50 69.00 L 52.50 68.00 L 52.50 67.00 L 52.50 66.00 L 52.50 65.00 L 52.50 64.00 L 52.50 63.00 L 52.50 62.00 L 52.50 61.00 L 52.50 60.00 L 52.50 59.00 L 52.50 58.00 L 52.50 57.00 L 52.50 56.00 L 52.50 55.00 L 52.50 54.00 L 52.50 53.00 L 52.50 52.00 L 52.50 51.00 L 52.50 50.00 L 52.50 49.00 L 52.50 48.00 L 52.50 47.00 L 52.50 46.00 L 52.50 45.00 L 52.50 44.00 L 52.50 43.00 L 52.50 42.00 L 52.50 41.00 L 52.50 40.00 L 52.50 39.00 L 52.50 38.00 L 52.50 37.00 L 52.50 36.00 L 52.50 35.00 L 52.50 34.00 L 52.50 33.00 L 52.50 32.00 L 52.50 31.00 L 52.50 30.00 L 52.50 29.00 L 52.50 28.00 L 52.50 27.00 L 52.50 26.00 L 52.50 25.00 L 52.50 24.00 L 52.50 23.00 L 52.50 22.00 L 52.50 21.00 L 52.50 20.00 L 52.50 19.00 L 52.50 18.00 L 52.50 17.00 L 52.50 16.00 L 52.50 15.00 L 52.50 14.00 L 52.50 13.00 L 52.50 12.00 L 52.50 11.00 L 52.50 10.00 L 52.50 9.00 L 52.50 8.00 L 52.50 7.00 L 53.00 6.50 L 54.00 6.50 L 55.00 6.50 L 56.00 6.50 L 57.00 6.50 L 57.50 6.00 L 58.00 5.50 L 59.00 5.50 L 60.00 5.50 L 61.00 5.50 L 62.00 5.50 L 63.00 5.50 L 64.00 5.50 L 65.00 5.50 L 66.00 5.50 L 67.00 5.50 L 68.00 5.50 L 69.00 5.50 L 70.00 5.50 L 71.00 5.50 L 72.00 5.50 L 73.00 5.50 L 74.00 5.50 L 75.00 5.50 L 76.00 5.50 L 77.00 5.50 L 78.00 5.50 L 79.00 5.50 L 80.00 5.50 L 81.00 5.50 L 82.00 5.50 L 83.00 5.50 L 84.00 5.50 L 85.00 5.50 L 86.00 5.50 L 87.00 5.50 L 88.00 5.50 L 89.00 5.50 L 90.00 5.50 L 91.00 5.50 L 92.00 5.50 L 93.00 5.50 L 94.00 5.50 L 95.00 5.50 L 96.00 5.50 L 97.00 5.50 L 98.00 5.50 L 99.00 5.50 L 100.00 5.50 L 101.00 5.50 L 102.00 5.50 L 103.00 5.50 L 104.00 5.50 L 105.00 5.50 L 106.00 5.50 L 107.00 5.50 L 108.00 5.50 L 109.00 5.50 L 110.00 5.50 L 111.00 5.50 L 112.00 5.50 L 113.00 5.50 L 114.00 5.50 L 115.00 5.50 L 116.00 5.50 L 117.00 5.50 L 118.00 5.50 L 119.00 5.50 L 120.00 5.50 L 121.00 5.50 L 122.00 5.50 L 123.00 5.50 L 124.00 5.50 L 125.00 5.50 L 126.00 5.50 L 127.00 5.50 L 128.00 5.50 L 129.00 5.50 L 130.00 5.50 L 131.00 5.50 L 132.00 5.50 L 133.00 5.50 L 134.00 5.50 L 135.00 5.50 L 136.00 5.50 L 137.00 5.50 L 138.00 5.50 L 139.00 5.50 L 140.00 5.50 L 141.00 5.50 L 142.00 5.50 L 143.00 5.50 L 144.00 5.50 L 145.00 5.50 L 146.00 5.50 L 147.00 5.50 L 148.00 5.50 L 149.00 5.50 L 150.00 5.50 L 151.00 5.50 L 152.00 5.50 L 153.00 5.50 L 154.00 5.50 L 155.00 5.50 L 156.00 5.50 L 157.00 5.50 L 158.00 5.50 L 159.00 5.50 L 160.00 5.50 L 161.00 5.50 L 162.00 5.50 L 163.00 5.50 L 164.00 5.50 L 165.00 5.50 L 166.00 5.50 L 167.00 5.50 L 168.00 5.50 L 169.00 5.50 L 170.00 5.50 L 171.00 5.50 L 172.00 5.50 L 173.00 5.50 L 174.00 5.50 L 175.00 5.50 L 176.00 5.50 L 177.00 5.50 L 178.00 5.50 L 179.00 5.50 L 180.00 5.50 L 181.00 5.50 L 182.00 5.50 L 183.00 5.50 L 184.00 5.50 L 185.00 5.50 L 186.00 5.50 L 187.00 5.50 L 188.00 5.50 L 189.00 5.50 L 190.00 5.50 L 191.00 5.50 L 192.00 5.50 L 193.00 5.50 L 194.00 5.50 L 195.00 5.50 L 196.00 5.50 L 197.00 5.50 L 198.00 5.50 L 199.00 5.50 L 200.00 5.50 L 201.00 5.50 L 202.00 5.50 L 203.00 5.50 L 204.00 5.50 L 205.00 5.50 L 206.00 5.50 L 207.00 5.50 L 208.00 5.50 L 209.00 5.50 L 210.00 5.50 L 211.00 5.50 L 212.00 5.50 L 213.00 5.50 L 214.00 5.50 L 215.00 5.50 L 216.00 5.50 L 217.00 5.50 L 218.00 5.50 L 219.00 5.50 L 220.00 5.50 L 221.00 5.50 L 222.00 5.50 L 223.00 5.50 L 224.00 5.50 L 225.00 5.50 L 226.00 5.50 L 227.00 5.50 L 228.00 5.50 L 229.00 5.50 L 230.00 5.50 L 231.00 5.50 L 232.00 5.50 L 233.00 5.50 L 234.00 5.50 L 235.00 5.50 L 236.00 5.50 L 237.00 5.50 L 238.00 5.50 L 239.00 5.50 L 240.00 5.50 L 241.00 5.50 L 242.00 5.50 L 243.00 5.50 L 244.00 5.50 L 245.00 5.50 L 246.00 5.50 L 246.50 6.00 L 247.00 6.50 L 248.00 6.50 L 248.50 7.00 L 249.00 7.50 L 249.50 8.00 L 250.00 8.50 L 250.50 9.00 L 250.50 10.00 L 250.50 11.00 L 250.50 12.00 L 250.50 13.00 L 250.50 14.00 L 250.50 15.00 L 250.50 16.00 L 250.50 17.00 L 250.50 18.00 L 250.50 19.00 L 250.50 20.00 L 250.50 21.00 L 250.50 22.00 L 250.50 23.00 L 250.50 24.00 L 250.50 25.00 L 250.50 26.00 L 250.50 27.00 L 250.50 28.00 L 250.50 29.00 L 250.50 30.00 L 250.50 31.00 L 250.50 32.00 L 250.50 33.00 L 250.50 34.00 L 250.50 35.00 L 250.50 36.00 L 250.50 37.00 L 250.50 38.00 L 250.50 39.00 L 250.50 40.00 L 250.50 41.00 L 250.50 42.00 L 250.50 43.00 L 250.50 44.00 L 250.50 45.00 L 250.50 46.00 L 250.50 47.00 L 250.50 48.00 L 250.50 49.00 L 250.50 50.00 L 250.50 51.00 L 250.50 52.00 L 250.50 53.00 L 250.50 54.00 L 250.50 55.00 L 250.50 56.00 L 250.50 57.00 L 250.50 58.00 L 250.50 59.00 L 250.50 60.00 L 250.50 61.00 L 250.50 62.00 L 250.50 63.00 L 250.50 64.00 L 250.50 65.00 L 250.50 66.00 L 250.50 67.00 L 250.50 68.00 L 250.50 69.00 L 250.50 70.00 L 250.50 71.00 L 250.50 72.00 L 250.50 73.00 L 250.50 74.00 L 250.50 75.00 L 250.50 76.00 L 250.50 77.00 L 250.50 78.00 L 250.50 79.00 L 250.50 80.00 L 250.50 81.00 L 250.50 82.00 L 250.50 83.00 L 250.50 84.00 L 250.50 85.00 L 250.50 86.00 L 250.50 87.00 L 250.50 88.00 L 250.50 89.00 L 250.50 90.00 L 250.50 91.00 L 250.50 92.00 L 250.50 93.00 L 250.50 94.00 L 250.50 95.00 L 250.50 96.00 L 250.50 97.00 L 250.50 98.00 L 250.50 99.00 L 250.50 100.00 L 250.50 101.00 L 250.50 102.00 L 250.50 103.00 L 250.50 104.00 L 250.50 105.00 L 250.50 106.00 L 250.50 107.00 L 250.50 108.00 L 250.50 109.00 L 250.50 110.00 L 250.50 111.00 L 250.50 112.00 L 250.50 113.00 L 250.50 114.00 L 250.50 115.00 L 250.50 116.00 L 250.50 117.00 L 250.50 118.00 L 250.50 119.00 L 250.50 120.00 L 250.50 121.00 L 250.50 122.00 L 250.50 123.00 L 250.50 124.00 L 250.50 125.00 L 250.00 125.50 L 249.50 126.00 L 249.50 127.00 L 249.00 127.50 L 248.50 128.00 L 248.00 128.50 L 247.00 128.50 L 246.50 129.00 L 246.00 129.50 L 245.00 129.50 L 244.00 129.50 L 243.00 129.50 L 242.00 129.50 L 241.00 129.50 L 240.00 129.50 L 239.00 129.50 L 238.00 129.50 L 237.00 129.50 L 236.00 129.50 L 235.00 129.50 L 234.00 129.50 L 233.00 129.50 L 232.00 129.50 L 231.00 129.50 L 230.00 129.50 L 229.00 129.50 L 228.00 129.50 L 227.00 129.50 L 226.00 129.50 L 225.00 129.50 L 224.00 129.50 L 223.00 129.50 L 222.00 129.50 L 221.00 129.50 L 220.00 129.50 L 219.00 129.50 L 218.00 129.50 L 217.00 129.50 L 216.00 129.50 L 215.00 129.50 L 214.00 129.50 L 213.00 129.50 L 212.00 129.50 L 211.00 129.50 L 210.00 129.50 L 209.00 129.50 L 208.00 129.50 L 207.00 129.50 L 206.00 129.50 L 205.00 129.50 L 204.00 129.50 L 203.00 129.50 L 202.00 129.50 L 201.00 129.50 L 200.00 129.50 L 199.00 129.50 L 198.00 129.50 L 197.00 129.50 L 196.50 129.00 L 196.00 128.50 L 195.50 128.00 L 195.00 127.50 L 194.50 127.00 L 194.50 126.00 L 194.00 125.50 L 193.50 125.00 L 193.50 124.00 L 193.50 123.00 L 193.50 122.00 L 193.50 121.00 L 193.50 120.00 L 193.50 119.00 L 193.50 118.00 L 193.50 117.00 L 193.50 116.00 L 193.50 115.00 L 193.50 114.00 L 193.50 113.00 L 193.50 112.00 L 193.50 111.00 L 193.50 110.00 L 193.50 109.00 L 193.50 108.00 L 193.50 107.00 L 193.50 106.00 L 193.50 105.00 L 193.50 104.00 L 193.50 103.00 L 193.50 102.00 L 193.50 101.00 L 193.50 100.00 L 193.50 99.00 L 193.50 98.00 L 193.50 97.00 L 193.50 96.00 L 193.50 95.00 L 193.50 94.00 L 193.50 93.00 L 193.50 92.00 L 193.50 91.00 L 193.50 90.00 L 193.50 89.00 L 193.50 88.00 L 193.50 87.00 L 193.50 86.00 L 193.50 85.00 L 193.50 84.00 L 193.50 83.00 L 193.50 82.00 L 193.50 81.00 L 193.50 80.00 L 193.50 79.00 L 193.50 78.00 L 193.50 77.00 L 193.50 76.00 L 193.50 75.00 L 193.50 74.00 L 193.50 73.00 L 193.50 72.00 L 193.50 71.00 L 193.50 70.00 L 193.50 69.00 L 193.50 68.00 L 193.50 67.00 L 193.50 66.00 L 193.50 65.00 L 193.50 64.00 L 193.50 63.00 L 193.50 62.00 L 193.50 61.00 L 193.50 60.00 L 193.50 59.00 L 193.50 58.00 L 193.00 57.50 L 192.50 57.00 L 192.50 56.00 L 192.00 55.50 L 191.50 55.00 L 191.00 54.50 L 190.50 54.00 L 190.00 53.50 L 189.00 53.50 L 188.00 53.50 L 187.50 53.00 L 187.00 52.50 L 186.00 52.50 L 185.00 52.50 L 184.50 53.00 L 184.00 53.50 L 183.00 53.50 L 182.00 53.50 L 181.00 53.50 L 180.00 53.50 L 179.00 53.50 L 178.00 53.50 L 177.00 53.50 L 176.00 53.50 L 175.00 53.50 L 174.00 53.50 L 173.00 53.50 L 172.00 53.50 L 171.00 53.50 L 170.00 53.50 L 169.00 53.50 L 168.00 53.50 L 167.00 53.50 L 166.00 53.50 L 165.00 53.50 L 164.00 53.50 L 163.00 53.50 L 162.00 53.50 L 161.00 53.50 L 160.00 53.50 L 159.00 53.50 L 158.00 53.50 L 157.00 53.50 L 156.00 53.50 L 155.00 53.50 L 154.00 53.50 L 153.00 53.50 L 152.00 53.50 L 151.00 53.50 L 150.00 53.50 L 149.00 53.50 L 148.00 53.50 L 147.00 53.50 L 146.00 53.50 L 145.00 53.50 L 144.00 53.50 L 143.00 53.50 L 142.00 53.50 L 141.00 53.50 L 140.00 53.50 L 139.00 53.50 L 138.00 53.50 L 137.00 53.50 L 136.00 53.50 L 135.00 53.50 L 134.00 53.50 L 133.00 53.50 L 132.00 53.50 L 131.00 53.50 L 130.00 53.50 L 129.00 53.50 L 128.00 53.50 L 127.00 53.50 L 126.00 53.50 L 125.00 53.50 L 124.00 53.50 L 123.00 53.50 L 122.00 53.50 L 121.00 53.50 L 120.00 53.50 L 119.00 53.50 L 118.00 53.50 L 117.00 53.50 L 116.00 53.50 L 115.00 53.50 L 114.00 53.50 L 113.00 53.50 L 112.00 53.50 L 111.00 53.50 L 110.00 53.50 L 109.00 53.50 L 108.00 53.50 L 107.50 54.00 L 107.00 54.50 L 106.50 55.00 L 106.00 55.50 L 105.50 56.00 L 105.50 57.00 L 105.00 57.50 L 104.50 58.00 L 104.50 59.00 L 104.50 60.00 L 104.50 61.00 L 104.50 62.00 L 104.50 63.00 L 104.50 64.00 L 104.50 65.00 L 104.50 66.00 L 104.50 67.00 L 104.50 68.00 L 104.50 69.00 L 104.50 70.00 L 104.50 71.00 L 104.50 72.00 L 104.50 73.00 L 104.50 74.00 L 104.50 75.00 L 104.50 76.00 L 104.50 77.00 L 104.50 78.00 L 104.50 79.00 L 104.50 80.00 L 104.50 81.00 L 104.50 82.00 L 104.50 83.00 L 104.50 84.00 L 104.50 85.00 L 104.50 86.00 L 104.50 87.00 L 104.50 88.00 L 104.50 89.00 L 104.50 90.00 L 104.50 91.00 L 104.50 92.00 L 104.50 93.00 L 104.50 94.00 L 104.50 95.00 L 104.50 96.00 L 104.50 97.00 L 104.50 98.00 L 104.50 99.00 L 104.50 100.00 L 104.50 101.00 L 104.50 102.00 L 104.50 103.00 L 104.50 104.00 L 104.50 105.00 L 104.50 106.00 L 104.50 107.00 L 104.50 108.00 L 104.50 109.00 L 104.50 110.00 L 104.50 111.00 L 104.50 112.00 L 104.50 113.00 L 104.50 114.00 L 104.50 115.00 L 104.50 116.00 L 104.50 117.00 L 104.50 118.00 L 104.50 119.00 L 104.50 120.00 L 104.50 121.00 L 104.50 122.00 L 104.50 123.00 L 104.50 124.00 L 104.50 125.00 L 104.50 126.00 L 104.50 127.00 L 104.50 128.00 L 104.50 129.00 L 104.50 130.00 L 104.50 131.00 L 104.50 132.00 L 104.50 133.00 L 104.50 134.00 L 104.50 135.00 L 104.50 136.00 L 104.50 137.00 L 104.50 138.00 L 104.50 139.00 L 104.50 140.00 L 104.50 141.00 L 104.50 142.00 L 104.50 143.00 L 104.50 144.00 L 104.50 145.00 L 104.50 146.00 L 104.50 147.00 L 104.50 148.00 L 104.50 149.00 L 104.50 150.00 L 104.50 151.00 L 104.50 152.00 L 104.50 153.00 L 104.50 154.00 L 104.50 155.00 L 104.50 156.00 L 104.50 157.00 L 104.50 158.00 L 104.50 159.00 L 104.50 160.00 L 104.50 161.00 L 104.50 162.00 L 104.50 163.00 L 104.50 164.00 L 104.50 165.00 L 104.50 166.00 L 104.50 167.00 L 104.50 168.00 L 104.50 169.00 L 104.50 170.00 L 104.50 171.00 L 104.50 172.00 L 104.50 173.00 L 104.50 174.00 L 104.50 175.00 L 104.50 176.00 L 104.50 177.00 L 104.50 178.00 L 104.50 179.00 L 104.50 180.00 L 104.50 181.00 L 104.50 182.00 L 104.50 183.00 L 104.50 184.00 L 104.50 185.00 L 104.50 186.00 L 104.50 187.00 L 104.50 188.00 L 104.50 189.00 L 104.50 190.00 L 104.50 191.00 L 104.50 192.00 L 104.50 193.00 L 104.00 193.50 L 103.50 194.00 L 103.50 195.00 L 103.50 196.00 L 104.00 196.50 L 104.50 197.00 L 104.50 198.00 L 105.00 198.50 L 105.50 199.00 L 106.00 199.50 L 107.00 199.50 L 107.50 200.00 L 108.00 200.50 L 109.00 200.50 L 110.00 200.50 L 111.00 200.50 L 112.00 200.50 L 113.00 200.50 L 114.00 200.50 L 115.00 200.50 L 116.00 200.50 L 117.00 200.50 L 118.00 200.50 L 119.00 200.50 L 120.00 200.50 L 121.00 200.50 L 122.00 200.50 L 123.00 200.50 L 124.00 200.50 L 125.00 200.50 L 126.00 200.50 L 127.00 200.50 L 128.00 200.50 L 129.00 200.50 L 130.00 200.50 L 131.00 200.50 L 132.00 200.50 L 133.00 200.50 L 134.00 200.50 L 135.00 200.50 L 136.00 200.50 L 137.00 200.50 L 138.00 200.50 L 139.00 200.50 L 140.00 200.50 L 141.00 200.50 L 142.00 200.50 L 143.00 200.50 L 144.00 200.50 L 145.00 200.50 L 146.00 200.50 L 147.00 200.50 L 148.00 200.50 L 149.00 200.50 L 150.00 200.50 L 151.00 200.50 L 152.00 200.50 L 153.00 200.50 L 154.00 200.50 L 155.00 200.50 L 156.00 200.50 L 157.00 200.50 L 158.00 200.50 L 159.00 200.50 L 160.00 200.50 L 161.00 200.50 L 162.00 200.50 L 163.00 200.50 L 164.00 200.50 L 165.00 200.50 L 166.00 200.50 L 167.00 200.50 L 168.00 200.50 L 169.00 200.50 L 170.00 200.50 L 171.00 200.50 L 172.00 200.50 L 173.00 200.50 L 174.00 200.50 L 175.00 200.50 L 176.00 200.50 L 177.00 200.50 L 178.00 200.50 L 179.00 200.50 L 180.00 200.50 L 181.00 200.50 L 182.00 200.50 L 183.00 200.50 L 184.00 200.50 L 185.00 200.50 L 186.00 200.50 L 187.00 200.50 L 188.00 200.50 L 189.00 200.50 L 190.00 200.50 L 191.00 200.50 L 192.00 200.50 L 193.00 200.50 L 194.00 200.50 L 195.00 200.50 L 196.00 200.50 L 197.00 200.50 L 198.00 200.50 L 199.00 200.50 L 200.00 200.50 L 201.00 200.50 L 202.00 200.50 L 203.00 200.50 L 204.00 200.50 L 205.00 200.50 L 206.00 200.50 L 207.00 200.50 L 208.00 200.50 L 209.00 200.50 L 210.00 200.50 L 211.00 200.50 L 212.00 200.50 L 213.00 200.50 L 214.00 200.50 L 215.00 200.50 L 216.00 200.50 L 217.00 200.50 L 218.00 200.50 L 219.00 200.50 L 220.00 200.50 L 221.00 200.50 L 222.00 200.50 L 223.00 200.50 L 224.00 200.50 L 225.00 200.50 L 226.00 200.50 L 227.00 200.50 L 228.00 200.50 L 229.00 200.50 L 230.00 200.50 L 231.00 200.50 L 232.00 200.50 L 233.00 200.50 L 234.00 200.50 L 235.00 200.50 L 236.00 200.50 L 237.00 200.50 L 238.00 200.50 L 239.00 200.50 L 240.00 200.50 L 241.00 200.50 L 242.00 200.50 L 243.00 200.50 L 244.00 200.50 L 245.00 200.50 L 246.00 200.50 L 246.50 201.00 L 247.00 201.50 L 248.00 201.50 L 248.50 202.00 L 249.00 202.50 L 249.50 203.00 L 249.50 204.00 L 250.00 204.50 L 250.50 205.00 L 250.50 206.00 L 250.50 207.00 L 250.50 208.00 L 250.50 209.00 L 250.50 210.00 L 250.50 211.00 L 250.50 212.00 L 250.50 213.00 L 250.50 214.00 L 250.50 215.00 L 250.50 216.00 L 250.50 217.00 L 250.50 218.00 L 250.50 219.00 L 250.50 220.00 L 250.50 221.00 L 250.50 222.00 L 250.50 223.00 L 250.50 224.00 L 250.50 225.00 L 250.50 226.00 L 250.50 227.00 L 250.50 228.00 L 250.50 229.00 L 250.50 230.00 L 250.50 231.00 L 250.50 232.00 L 250.50 233.00 L 250.50 234.00 L 250.50 235.00 L 250.50 236.00 L 250.50 237.00 L 250.50 238.00 L 250.50 239.00 L 250.50 240.00 L 250.50 241.00 L 250.50 242.00 L 250.50 243.00 L 250.50 244.00 L 250.50 245.00 L 250.50 246.00 L 250.50 247.00 L 250.00 247.50 L 249.50 248.00 L 249.50 249.00 L 249.00 249.50 L 248.00 249.50 L 247.50 250.00 L 247.00 250.50 L 246.00 250.50 L 245.00 250.50 L 244.00 250.50 L 243.00 250.50 L 242.00 250.50 L 241.00 250.50 L 240.00 250.50 L 239.00 250.50 L 238.00 250.50 L 237.00 250.50 L 236.00 250.50 L 235.00 250.50 L 234.00 250.50 L 233.00 250.50 L 232.00 250.50 L 231.00 250.50 L 230.00 250.50 L 229.00 250.50 L 228.00 250.50 L 227.00 250.50 L 226.00 250.50 L 225.00 250.50 L 224.00 250.50 L 223.00 250.50 L 222.00 250.50 L 221.00 250.50 L 220.00 250.50 L 219.00 250.50 L 218.00 250.50 L 217.00 250.50 L 216.00 250.50 L 215.00 250.50 L 214.00 250.50 L 213.00 250.50 L 212.00 250.50 L 211.00 250.50 L 210.00 250.50 L 209.00 250.50 L 208.00 250.50 L 207.00 250.50 L 206.00 250.50 L 205.00 250.50 L 204.00 250.50 L 203.00 250.50 L 202.00 250.50 L 201.00 250.50 L 200.00 250.50 L 199.00 250.50 L 198.00 250.50 L 197.00 250.50 L 196.00 250.50 L 195.00 250.50 L 194.00 250.50 L 193.00 250.50 L 192.00 250.50 L 191.00 250.50 L 190.00 250.50 L 189.00 250.50 L 188.00 250.50 L 187.00 250.50 L 186.00 250.50 L 185.00 250.50 L 184.00 250.50 L 183.00 250.50 L 182.00 250.50 L 181.00 250.50 L 180.00 250.50 L 179.00 250.50 L 178.00 250.50 L 177.00 250.50 L 176.00 250.50 L 175.00 250.50 L 174.00 250.50 L 173.00 250.50 L 172.00 250.50 L 171.00 250.50 L 170.00 250.50 L 169.00 250.50 L 168.00 250.50 L 167.00 250.50 L 166.00 250.50 L 165.00 250.50 L 164.00 250.50 L 163.00 250.50 L 162.00 250.50 L 161.00 250.50 L 160.00 250.50 L 159.00 250.50 L 158.00 250.50 L 157.00 250.50 L 156.00 250.50 L 155.00 250.50 L 154.00 250.50 L 153.00 250.50 L 152.00 250.50 L 151.00 250.50 L 150.00 250.50 L 149.00 250.50 L 148.00 250.50 L 147.00 250.50 L 146.00 250.50 L 145.00 250.50 L 144.00 250.50 L 143.00 250.50 L 142.00 250.50 L 141.00 250.50 L 140.00 250.50 L 139.00 250.50 L 138.00 250.50 L 137.00 250.50 L 136.00 250.50 L 135.00 250.50 L 134.00 250.50 L 133.00 250.50 L 132.00 250.50 L 131.00 250.50 L 130.00 250.50 L 129.00 250.50 L 128.00 250.50 L 127.00 250.50 L 126.00 250.50 L 125.00 250.50 L 124.00 250.50 L 123.00 250.50 L 122.00 250.50 L 121.00 250.50 L 120.00 250.50 L 119.00 250.50 L 118.00 250.50 L 117.00 250.50 L 116.00 250.50 L 115.00 250.50 L 114.00 250.50 L 113.00 250.50 L 112.00 250.50 L 111.00 250.50 L 110.00 250.50 L 109.00 250.50 L 108.00 250.50 L 107.50 251.00 L 107.00 251.50 L 106.00 251.50 L 105.00 251.50 L 104.50 252.00 L 104.00 252.50 L 103.50 253.00 L 103.50 254.00 L 103.50 255.00 L 103.50 256.00 L 103.50 257.00 L 104.00 257.50 L 104.50 258.00 L 104.50 259.00 L 104.50 260.00 L 104.50 261.00 L 104.50 262.00 L 104.00 262.50 L 103.50 263.00 L 103.50 264.00 L 103.50 265.00 L 103.50 266.00 L 103.50 267.00 L 103.50 268.00 L 104.00 268.50 L 104.50 269.00 L 104.50 270.00 L 104.50 271.00 L 104.50 272.00 L 104.50 273.00 L 104.50 274.00 L 104.50 275.00 L 104.50 276.00 L 104.50 277.00 L 104.50 278.00 L 104.50 279.00 L 104.50 280.00 L 104.50 281.00 L 104.50 282.00 L 104.50 283.00 L 104.50 284.00 L 104.50 285.00 L 104.50 286.00 L 104.50 287.00 L 104.50 288.00 L 104.50 289.00 L 104.50 290.00 L 104.50 291.00 L 104.50 292.00 L 104.50 293.00 L 104.50 294.00 L 104.50 295.00 L 104.50 296.00 L 104.50 297.00 L 104.50 298.00 L 104.50 299.00 L 104.50 300.00 L 104.50 301.00 L 104.50 302.00 L 104.50 303.00 L 104.50 304.00 L 104.50 305.00 L 104.50 306.00 L 104.50 307.00 L 104.50 308.00 L 104.50 309.00 L 104.50 310.00 L 104.50 311.00 L 104.50 312.00 L 104.00 312.50 L 103.50 313.00 L 103.50 314.00 L 103.50 315.00 L 103.50 316.00 L 103.50 317.00 L 104.00 317.50 L 104.50 318.00 L 104.50 319.00 L 105.00 319.50 L 105.50 320.00 L 106.00 320.50 L 106.50 321.00 L 107.00 321.50 L 107.50 322.00 L 108.00 322.50 L 108.50 323.00 L 109.00 323.50 L 109.50 324.00 L 110.00 324.50 L 110.50 325.00 L 110.50 326.00 L 111.00 326.50 L 111.50 327.00 L 112.00 327.50 L 113.00 327.50 L 113.50 328.00 L 114.00 328.50 L 114.50 329.00 L 115.00 329.50 L 115.50 330.00 L 116.00 330.50 L 116.50 331.00 L 117.00 331.50 L 117.50 332.00 L 117.50 333.00 L 118.00 333.50 L 119.00 333.50 L 119.50 334.00 L 120.00 334.50 L 121.00 334.50 L 121.50 335.00 L 122.00 335.50 L 123.00 335.50 L 123.50 336.00 L 124.00 336.50 L 124.50 337.00 L 125.00 337.50 L 125.50 338.00 L 126.00 338.50 L 127.00 338.50 L 127.50 339.00 L 128.00 339.50 L 129.00 339.50 L 129.50 340.00 L 130.00 340.50 L 131.00 340.50 L 131.50 341.00 L 132.00 341.50 L 132.50 342.00 L 133.00 342.50 L 133.50 343.00 L 134.00 343.50 L 134.50 344.00 L 135.00 344.50 L 135.50 345.00 L 136.00 345.50 L 136.50 346.00 L 137.00 346.50 L 138.00 346.50 L 138.50 347.00 L 139.00 347.50 L 139.50 348.00 L 140.00 348.50 L 140.50 349.00 L 141.00 349.50 L 141.50 350.00 L 142.00 350.50 L 142.50 351.00 L 143.00 351.50 L 143.50 352.00 L 143.50 353.00 L 144.00 353.50 L 144.50 354.00 L 145.00 354.50 L 146.00 354.50 L 146.50 355.00 L 147.00 355.50 L 147.50 356.00 L 148.00 356.50 L 148.50 357.00 L 148.50 358.00 L 149.00 358.50 L 149.50 359.00 L 150.00 359.50 L 150.50 360.00 L 151.00 360.50 L 151.50 361.00 L 152.00 361.50 L 153.00 361.50 L 153.50 362.00 L 154.00 362.50 L 154.50 363.00 L 155.00 363.50 L 155.50 364.00 L 156.00 364.50 L 156.50 365.00 L 156.50 366.00 L 157.00 366.50 L 158.00 366.50 L 158.50 367.00 L 159.00 367.50 L 160.00 367.50 L 160.50 368.00 L 161.00 368.50 L 162.00 368.50 L 162.50 369.00 L 163.00 369.50 L 163.50 370.00 L 164.00 370.50 L 164.50 371.00 L 165.00 371.50 L 165.50 372.00 L 166.00 372.50 L 166.50 373.00 L 167.00 373.50 L 168.00 373.50 L 168.50 374.00 L 169.00 374.50 L 170.00 374.50 L 170.50 375.00 L 171.00 375.50 L 171.50 376.00 L 172.00 376.50 L 173.00 376.50 L 173.50 377.00 L 174.00 377.50 L 174.50 378.00 L 174.50 379.00 L 175.00 379.50 L 175.50 380.00 L 176.00 380.50 L 177.00 380.50 L 177.50 381.00 L 178.00 381.50 L 178.50 382.00 L 179.00 382.50 L 180.00 382.50 L 180.50 383.00 L 181.00 383.50 L 181.50 384.00 L 181.50 385.00 L 182.00 385.50 L 182.50 386.00 L 183.00 386.50 L 183.50 387.00 L 184.00 387.50 L 185.00 387.50 L 185.50 388.00 L 186.00 388.50 L 187.00 388.50 L 187.50 389.00 L 188.00 389.50 L 188.50 390.00 L 189.00 390.50 L 189.50 391.00 L 190.00 391.50 L 190.50 392.00 L 191.00 392.50 L 192.00 392.50 L 193.00 392.50 L 193.50 392.00 L 194.00 391.50 L 194.50 391.00 L 194.50 390.00 L 194.50 389.00 L 194.00 388.50 L 193.50 388.00 L 193.50 387.00 L 193.50 386.00 L 193.50 385.00 L 193.50 384.00 L 193.50 383.00 L 193.50 382.00 L 193.50 381.00 L 193.50 380.00 L 193.50 379.00 L 193.50 378.00 L 193.50 377.00 L 193.50 376.00 L 193.50 375.00 L 193.50 374.00 L 193.50 373.00 L 193.50 372.00 L 193.50 371.00 L 193.50 370.00 L 193.50 369.00 L 193.50 368.00 L 193.50 367.00 L 193.50 366.00 L 193.50 365.00 L 193.50 364.00 L 193.50 363.00 L 193.50 362.00 L 193.50 361.00 L 193.50 360.00 L 193.50 359.00 L 193.50 358.00 L 193.50 357.00 L 193.50 356.00 L 193.50 355.00 L 193.50 354.00 L 193.50 353.00 L 193.50 352.00 L 193.50 351.00 L 193.50 350.00 L 193.50 349.00 L 193.50 348.00 L 193.50 347.00 L 193.50 346.00 L 193.50 345.00 L 193.50 344.00 L 193.50 343.00 L 193.50 342.00 L 193.50 341.00 L 193.50 340.00 L 193.50 339.00 L 193.50 338.00 L 193.50 337.00 L 193.50 336.00 L 193.50 335.00 L 193.50 334.00 L 193.50 333.00 L 193.50 332.00 L 193.50 331.00 L 193.50 330.00 L 193.50 329.00 L 193.50 328.00 L 193.50 327.00 L 193.50 326.00 L 193.50 325.00 L 193.50 324.00 L 193.50 323.00 L 193.50 322.00 L 193.50 321.00 L 193.50 320.00 L 194.00 319.50 L 194.50 319.00 L 194.50 318.00 L 194.50 317.00 L 195.00 316.50 L 195.50 316.00 L 196.00 315.50 L 196.50 315.00 L 197.00 314.50 L 198.00 314.50 L 199.00 314.50 L 200.00 314.50 L 201.00 314.50 L 202.00 314.50 L 203.00 314.50 L 204.00 314.50 L 205.00 314.50 L 206.00 314.50 L 207.00 314.50 L 208.00 314.50 L 209.00 314.50 L 210.00 314.50 L 210.50 314.00 L 211.00 313.50 L 212.00 313.50 L 213.00 313.50 L 214.00 313.50 L 215.00 313.50 L 216.00 313.50 L 217.00 313.50 L 218.00 313.50 L 219.00 313.50 L 220.00 313.50 L 221.00 313.50 L 222.00 313.50 L 223.00 313.50 L 224.00 313.50 L 225.00 313.50 L 226.00 313.50 L 227.00 313.50 L 228.00 313.50 L 229.00 313.50 L 230.00 313.50 L 231.00 313.50 L 232.00 313.50 L 233.00 313.50 L 233.50 314.00 L 234.00 314.50 L 235.00 314.50 L 235.50 314.00 L 236.00 313.50 L 237.00 313.50 L 238.00 313.50 L 239.00 313.50 L 240.00 313.50 L 241.00 313.50 L 242.00 313.50 L 242.50 314.00 L 243.00 314.50 L 244.00 314.50 L 245.00 314.50 L 246.00 314.50 L 247.00 314.50 L 247.50 315.00 L 248.00 315.50 L 249.00 315.50 L 249.50 316.00 L 249.50 317.00 L 250.00 317.50 L 250.50 318.00 L 250.50 319.00 L 250.50 320.00 L 250.50 321.00 L 250.50 322.00 L 250.50 323.00 L 250.50 324.00 L 250.50 325.00 L 250.50 326.00 L 250.50 327.00 L 250.50 328.00 L 250.50 329.00 L 250.50 330.00 L 250.50 331.00 L 250.50 332.00 L 250.50 333.00 L 250.50 334.00 L 250.50 335.00 L 250.50 336.00 L 250.50 337.00 L 250.50 338.00 L 250.50 339.00 L 250.50 340.00 L 250.50 341.00 L 250.50 342.00 L 250.50 343.00 L 250.50 344.00 L 250.50 345.00 L 250.50 346.00 L 250.50 347.00 L 250.50 348.00 L 250.50 349.00 L 250.50 350.00 L 250.50 351.00 L 250.50 352.00 L 250.50 353.00 L 250.50 354.00 L 250.50 355.00 L 250.50 356.00 L 250.50 357.00 L 250.50 358.00 L 250.50 359.00 L 250.50 360.00 L 250.50 361.00 L 250.50 362.00 L 250.50 363.00 L 250.50 364.00 L 250.50 365.00 L 250.50 366.00 L 250.50 367.00 L 250.50 368.00 L 250.50 369.00 L 250.50 370.00 L 250.50 371.00 L 250.50 372.00 L 250.50 373.00 L 250.50 374.00 L 250.50 375.00 L 250.50 376.00 L 250.50 377.00 L 250.50 378.00 L 250.50 379.00 L 250.50 380.00 L 250.50 381.00 L 250.50 382.00 L 250.50 383.00 L 250.50 384.00 L 250.50 385.00 L 250.50 386.00 L 250.50 387.00 L 250.50 388.00 L 250.50 389.00 L 250.50 390.00 L 250.50 391.00 L 250.50 392.00 L 250.50 393.00 L 250.50 394.00 L 250.50 395.00 L 250.50 396.00 L 250.50 397.00 L 250.50 398.00 L 250.50 399.00 L 250.50 400.00 L 250.50 401.00 L 250.50 402.00 L 250.50 403.00 L 250.50 404.00 L 250.50 405.00 L 250.50 406.00 L 250.50 407.00 L 250.50 408.00 L 250.50 409.00 L 250.50 410.00 L 250.50 411.00 L 250.50 412.00 L 250.50 413.00 L 250.50 414.00 L 250.50 415.00 L 250.50 416.00 L 250.50 417.00 L 250.50 418.00 L 250.50 419.00 L 250.50 420.00 L 250.50 421.00 L 250.50 422.00 L 250.50 423.00 L 250.50 424.00 L 250.50 425.00 L 250.50 426.00 L 250.50 427.00 L 250.50 428.00 L 250.50 429.00 L 250.50 430.00 L 250.50 431.00 L 250.50 432.00 L 250.50 433.00 L 250.50 434.00 L 250.50 435.00 L 250.50 436.00 L 250.50 437.00 L 250.50 438.00 L 250.50 439.00 L 250.50 440.00 L 250.50 441.00 L 250.50 442.00 L 250.50 443.00 L 250.50 444.00 L 250.50 445.00 L 250.50 446.00 L 250.50 447.00 L 250.50 448.00 L 250.50 449.00 L 250.50 450.00 L 250.50 451.00 L 250.50 452.00 L 250.50 453.00 L 250.50 454.00 L 250.50 455.00 L 250.50 456.00 L 250.50 457.00 L 250.50 458.00 L 250.50 459.00 L 250.50 460.00 L 250.50 461.00 L 250.50 462.00 L 250.50 463.00 L 250.50 464.00 L 250.50 465.00 L 250.50 466.00 L 250.50 467.00 L 250.50 468.00 L 250.50 469.00 L 250.50 470.00 L 250.50 471.00 L 250.50 472.00 L 250.50 473.00 L 250.50 474.00 L 250.50 475.00 L 250.50 476.00 L 250.50 477.00 L 250.50 478.00 L 250.50 479.00 L 250.50 480.00 L 250.50 481.00 L 250.50 482.00 L 250.50 483.00 L 250.50 484.00 L 250.50 485.00 L 250.50 486.00 L 250.50 487.00 L 250.50 488.00 L 250.50 489.00 L 250.50 490.00 L 250.50 491.00 L 250.50 492.00 L 250.50 493.00 L 250.50 494.00 L 250.50 495.00 L 250.50 496.00 L 250.50 497.00 L 250.50 498.00 L 250.50 499.00 L 250.50 500.00 L 250.50 501.00 L 250.50 502.00 L 250.00 502.50 L 249.50 503.00 L 249.00 503.50 L 248.50 504.00 L 248.00 504.50 Z"/><path d="M 267.00 504.50 L 266.00 504.50 L 265.00 504.50 L 264.00 504.50 L 263.00 504.50 L 262.00 504.50 L 261.50 504.00 L 261.00 503.50 L 260.50 503.00 L 260.00 502.50 L 259.50 502.00 L 259.50 501.00 L 259.50 500.00 L 259.50 499.00 L 259.50 498.00 L 259.50 497.00 L 259.50 496.00 L 259.50 495.00 L 259.50 494.00 L 259.50 493.00 L 259.50 492.00 L 259.50 491.00 L 259.50 490.00 L 259.50 489.00 L 259.50 488.00 L 259.50 487.00 L 259.50 486.00 L 259.50 485.00 L 259.50 484.00 L 259.50 483.00 L 259.50 482.00 L 259.50 481.00 L 259.50 480.00 L 259.50 479.00 L 259.50 478.00 L 259.50 477.00 L 259.50 476.00 L 259.50 475.00 L 259.50 474.00 L 259.50 473.00 L 259.50 472.00 L 259.50 471.00 L 259.50 470.00 L 259.50 469.00 L 259.50 468.00 L 259.50 467.00 L 259.50 466.00 L 259.50 465.00 L 259.50 464.00 L 259.50 463.00 L 259.50 462.00 L 259.50 461.00 L 259.50 460.00 L 259.50 459.00 L 259.50 458.00 L 259.50 457.00 L 259.50 456.00 L 259.50 455.00 L 259.50 454.00 L 259.50 453.00 L 259.50 452.00 L 259.50 451.00 L 259.50 450.00 L 259.50 449.00 L 259.50 448.00 L 259.50 447.00 L 259.50 446.00 L 259.50 445.00 L 259.50 444.00 L 259.50 443.00 L 259.50 442.00 L 259.50 441.00 L 259.50 440.00 L 259.50 439.00 L 259.50 438.00 L 259.50 437.00 L 259.50 436.00 L 259.50 435.00 L 259.50 434.00 L 259.50 433.00 L 259.50 432.00 L 259.50 431.00 L 259.50 430.00 L 259.50 429.00 L 259.50 428.00 L 259.50 427.00 L 259.50 426.00 L 259.50 425.00 L 259.50 424.00 L 259.50 423.00 L 259.50 422.00 L 259.50 421.00 L 259.50 420.00 L 259.50 419.00 L 259.50 418.00 L 259.50 417.00 L 259.50 416.00 L 259.50 415.00 L 259.50 414.00 L 259.50 413.00 L 259.50 412.00 L 259.50 411.00 L 259.50 410.00 L 259.50 409.00 L 259.50 408.00 L 259.50 407.00 L 259.50 406.00 L 259.50 405.00 L 259.50 404.00 L 259.50 403.00 L 259.50 402.00 L 259.50 401.00 L 259.50 400.00 L 259.50 399.00 L 259.50 398.00 L 259.50 397.00 L 259.50 396.00 L 259.50 395.00 L 259.50 394.00 L 259.50 393.00 L 259.50 392.00 L 259.50 391.00 L 259.50 390.00 L 259.50 389.00 L 259.50 388.00 L 259.50 387.00 L 259.50 386.00 L 259.50 385.00 L 259.50 384.00 L 259.50 383.00 L 259.50 382.00 L 259.50 381.00 L 259.50 380.00 L 259.50 379.00 L 259.50 378.00 L 259.50 377.00 L 259.50 376.00 L 259.50 375.00 L 259.50 374.00 L 259.50 373.00 L 259.50 372.00 L 259.50 371.00 L 259.50 370.00 L 259.50 369.00 L 259.50 368.00 L 259.50 367.00 L 259.50 366.00 L 259.50 365.00 L 259.50 364.00 L 259.50 363.00 L 259.50 362.00 L 259.50 361.00 L 259.50 360.00 L 259.50 359.00 L 259.50 358.00 L 259.50 357.00 L 259.50 356.00 L 259.50 355.00 L 259.50 354.00 L 259.50 353.00 L 259.50 352.00 L 259.50 351.00 L 259.50 350.00 L 259.50 349.00 L 259.50 348.00 L 259.50 347.00 L 259.50 346.00 L 259.50 345.00 L 259.50 344.00 L 259.50 343.00 L 259.50 342.00 L 259.50 341.00 L 259.50 340.00 L 259.50 339.00 L 259.50 338.00 L 259.50 337.00 L 259.50 336.00 L 259.50 335.00 L 259.50 334.00 L 259.50 333.00 L 259.50 332.00 L 259.50 331.00 L 259.50 330.00 L 259.50 329.00 L 259.50 328.00 L 259.50 327.00 L 259.50 326.00 L 259.50 325.00 L 259.50 324.00 L 259.50 323.00 L 259.50 322.00 L 259.50 321.00 L 259.50 320.00 L 259.50 319.00 L 259.50 318.00 L 259.50 317.00 L 259.50 316.00 L 259.50 315.00 L 259.50 314.00 L 259.50 313.00 L 259.50 312.00 L 259.50 311.00 L 259.50 310.00 L 259.50 309.00 L 259.50 308.00 L 259.50 307.00 L 259.50 306.00 L 259.50 305.00 L 259.50 304.00 L 259.50 303.00 L 259.50 302.00 L 259.50 301.00 L 259.50 300.00 L 259.50 299.00 L 259.50 298.00 L 259.50 297.00 L 259.50 296.00 L 259.50 295.00 L 259.50 294.00 L 259.50 293.00 L 259.50 292.00 L 259.50 291.00 L 259.50 290.00 L 259.50 289.00 L 259.50 288.00 L 259.50 287.00 L 259.50 286.00 L 259.50 285.00 L 259.50 284.00 L 259.50 283.00 L 259.50 282.00 L 259.50 281.00 L 259.50 280.00 L 259.50 279.00 L 259.50 278.00 L 259.50 277.00 L 259.50 276.00 L 259.50 275.00 L 259.50 274.00 L 259.50 273.00 L 259.50 272.00 L 259.50 271.00 L 259.50 270.00 L 259.50 269.00 L 259.50 268.00 L 259.50 267.00 L 259.50 266.00 L 259.50 265.00 L 259.50 264.00 L 259.50 263.00 L 259.50 262.00 L 259.50 261.00 L 259.50 260.00 L 259.50 259.00 L 259.50 258.00 L 259.50 257.00 L 259.50 256.00 L 259.50 255.00 L 259.50 254.00 L 259.50 253.00 L 259.50 252.00 L 259.50 251.00 L 259.50 250.00 L 259.50 249.00 L 259.50 248.00 L 259.50 247.00 L 259.50 246.00 L 259.50 245.00 L 259.50 244.00 L 259.50 243.00 L 259.50 242.00 L 259.50 241.00 L 259.50 240.00 L 259.50 239.00 L 259.50 238.00 L 259.50 237.00 L 259.50 236.00 L 259.50 235.00 L 259.50 234.00 L 259.50 233.00 L 259.50 232.00 L 259.50 231.00 L 259.50 230.00 L 259.50 229.00 L 259.50 228.00 L 259.50 227.00 L 259.50 226.00 L 259.50 225.00 L 259.50 224.00 L 259.50 223.00 L 259.50 222.00 L 259.50 221.00 L 259.50 220.00 L 259.50 219.00 L 259.50 218.00 L 259.50 217.00 L 259.50 216.00 L 259.50 215.00 L 259.50 214.00 L 259.50 213.00 L 259.50 212.00 L 259.50 211.00 L 259.50 210.00 L 259.50 209.00 L 259.50 208.00 L 259.50 207.00 L 259.50 206.00 L 259.50 205.00 L 259.50 204.00 L 259.50 203.00 L 259.50 202.00 L 259.50 201.00 L 259.50 200.00 L 259.50 199.00 L 259.50 198.00 L 259.50 197.00 L 259.50 196.00 L 259.50 195.00 L 259.50 194.00 L 259.50 193.00 L 259.50 192.00 L 259.50 191.00 L 259.50 190.00 L 259.50 189.00 L 259.50 188.00 L 259.50 187.00 L 259.50 186.00 L 259.50 185.00 L 259.50 184.00 L 259.50 183.00 L 259.50 182.00 L 259.50 181.00 L 259.50 180.00 L 259.50 179.00 L 259.50 178.00 L 259.50 177.00 L 259.50 176.00 L 259.50 175.00 L 259.50 174.00 L 259.50 173.00 L 259.50 172.00 L 259.50 171.00 L 259.50 170.00 L 259.50 169.00 L 259.50 168.00 L 259.50 167.00 L 259.50 166.00 L 259.50 165.00 L 259.50 164.00 L 259.50 163.00 L 259.50 162.00 L 259.50 161.00 L 259.50 160.00 L 259.50 159.00 L 259.50 158.00 L 259.50 157.00 L 259.50 156.00 L 259.50 155.00 L 259.50 154.00 L 259.50 153.00 L 259.50 152.00 L 259.50 151.00 L 259.50 150.00 L 259.50 149.00 L 259.50 148.00 L 259.50 147.00 L 259.50 146.00 L 259.50 145.00 L 259.50 144.00 L 259.50 143.00 L 259.50 142.00 L 259.50 141.00 L 259.50 140.00 L 259.50 139.00 L 259.50 138.00 L 259.50 137.00 L 259.50 136.00 L 259.50 135.00 L 259.50 134.00 L 259.50 133.00 L 259.50 132.00 L 259.50 131.00 L 259.50 130.00 L 259.50 129.00 L 259.50 128.00 L 259.50 127.00 L 259.50 126.00 L 259.50 125.00 L 259.50 124.00 L 259.50 123.00 L 259.50 122.00 L 259.50 121.00 L 259.50 120.00 L 259.50 119.00 L 259.50 118.00 L 259.50 117.00 L 259.50 116.00 L 259.50 115.00 L 259.50 114.00 L 259.50 113.00 L 259.50 112.00 L 259.50 111.00 L 259.50 110.00 L 259.50 109.00 L 259.50 108.00 L 259.50 107.00 L 259.50 106.00 L 259.50 105.00 L 259.50 104.00 L 259.50 103.00 L 259.50 102.00 L 259.50 101.00 L 259.50 100.00 L 259.50 99.00 L 259.50 98.00 L 259.50 97.00 L 259.50 96.00 L 259.50 95.00 L 259.50 94.00 L 259.50 93.00 L 259.50 92.00 L 259.50 91.00 L 259.50 90.00 L 259.50 89.00 L 259.50 88.00 L 259.50 87.00 L 259.50 86.00 L 259.50 85.00 L 259.50 84.00 L 259.50 83.00 L 259.50 82.00 L 259.50 81.00 L 259.50 80.00 L 259.50 79.00 L 259.50 78.00 L 259.50 77.00 L 259.50 76.00 L 259.50 75.00 L 259.50 74.00 L 259.50 73.00 L 259.50 72.00 L 259.50 71.00 L 259.50 70.00 L 259.50 69.00 L 259.50 68.00 L 259.50 67.00 L 259.50 66.00 L 259.50 65.00 L 259.50 64.00 L 259.50 63.00 L 259.50 62.00 L 259.50 61.00 L 259.50 60.00 L 259.50 59.00 L 259.50 58.00 L 259.50 57.00 L 259.50 56.00 L 259.50 55.00 L 259.50 54.00 L 259.50 53.00 L 259.50 52.00 L 259.50 51.00 L 259.50 50.00 L 259.50 49.00 L 259.50 48.00 L 259.50 47.00 L 259.50 46.00 L 259.50 45.00 L 259.50 44.00 L 259.50 43.00 L 259.50 42.00 L 259.50 41.00 L 259.50 40.00 L 259.50 39.00 L 259.50 38.00 L 259.50 37.00 L 259.50 36.00 L 259.50 35.00 L 259.50 34.00 L 259.50 33.00 L 259.50 32.00 L 259.50 31.00 L 259.50 30.00 L 259.50 29.00 L 259.50 28.00 L 259.50 27.00 L 259.50 26.00 L 259.50 25.00 L 259.50 24.00 L 259.50 23.00 L 259.50 22.00 L 259.50 21.00 L 259.50 20.00 L 259.50 19.00 L 259.50 18.00 L 259.50 17.00 L 259.50 16.00 L 259.50 15.00 L 259.50 14.00 L 259.50 13.00 L 259.50 12.00 L 259.50 11.00 L 259.50 10.00 L 260.00 9.50 L 260.50 9.00 L 261.00 8.50 L 261.50 8.00 L 262.00 7.50 L 262.50 7.00 L 263.00 6.50 L 264.00 6.50 L 265.00 6.50 L 265.50 6.00 L 266.00 5.50 L 267.00 5.50 L 268.00 5.50 L 269.00 5.50 L 270.00 5.50 L 271.00 5.50 L 272.00 5.50 L 273.00 5.50 L 274.00 5.50 L 275.00 5.50 L 276.00 5.50 L 277.00 5.50 L 278.00 5.50 L 279.00 5.50 L 280.00 5.50 L 281.00 5.50 L 282.00 5.50 L 283.00 5.50 L 284.00 5.50 L 285.00 5.50 L 286.00 5.50 L 287.00 5.50 L 288.00 5.50 L 289.00 5.50 L 290.00 5.50 L 291.00 5.50 L 292.00 5.50 L 293.00 5.50 L 294.00 5.50 L 295.00 5.50 L 296.00 5.50 L 297.00 5.50 L 298.00 5.50 L 299.00 5.50 L 300.00 5.50 L 301.00 5.50 L 302.00 5.50 L 303.00 5.50 L 304.00 5.50 L 305.00 5.50 L 306.00 5.50 L 307.00 5.50 L 308.00 5.50 L 309.00 5.50 L 310.00 5.50 L 311.00 5.50 L 311.50 6.00 L 312.00 6.50 L 313.00 6.50 L 314.00 6.50 L 314.50 7.00 L 315.00 7.50 L 315.50 8.00 L 315.50 9.00 L 316.00 9.50 L 316.50 10.00 L 316.50 11.00 L 316.50 12.00 L 316.50 13.00 L 316.50 14.00 L 316.50 15.00 L 316.50 16.00 L 316.50 17.00 L 316.50 18.00 L 316.50 19.00 L 316.50 20.00 L 316.50 21.00 L 316.50 22.00 L 316.50 23.00 L 316.50 24.00 L 316.50 25.00 L 316.50 26.00 L 316.50 27.00 L 316.50 28.00 L 316.50 29.00 L 316.50 30.00 L 316.50 31.00 L 316.50 32.00 L 316.50 33.00 L 316.50 34.00 L 316.50 35.00 L 316.50 36.00 L 316.50 37.00 L 316.50 38.00 L 316.50 39.00 L 316.50 40.00 L 316.50 41.00 L 316.50 42.00 L 316.50 43.00 L 316.50 44.00 L 316.50 45.00 L 316.50 46.00 L 316.50 47.00 L 316.50 48.00 L 316.50 49.00 L 316.50 50.00 L 316.50 51.00 L 316.50 52.00 L 316.50 53.00 L 316.50 54.00 L 316.50 55.00 L 316.50 56.00 L 316.50 57.00 L 316.50 58.00 L 316.50 59.00 L 316.50 60.00 L 316.50 61.00 L 316.50 62.00 L 316.50 63.00 L 316.50 64.00 L 316.50 65.00 L 316.50 66.00 L 316.50 67.00 L 316.50 68.00 L 316.50 69.00 L 316.50 70.00 L 316.50 71.00 L 316.50 72.00 L 316.50 73.00 L 316.50 74.00 L 316.50 75.00 L 316.50 76.00 L 316.50 77.00 L 316.50 78.00 L 316.50 79.00 L 316.50 80.00 L 316.50 81.00 L 316.50 82.00 L 316.50 83.00 L 316.50 84.00 L 316.50 85.00 L 316.50 86.00 L 316.50 87.00 L 316.50 88.00 L 316.50 89.00 L 316.50 90.00 L 316.50 91.00 L 316.50 92.00 L 316.50 93.00 L 316.50 94.00 L 316.50 95.00 L 316.50 96.00 L 316.50 97.00 L 316.50 98.00 L 316.50 99.00 L 316.50 100.00 L 316.50 101.00 L 316.50 102.00 L 316.50 103.00 L 316.50 104.00 L 316.50 105.00 L 316.50 106.00 L 316.50 107.00 L 316.50 108.00 L 316.50 109.00 L 316.50 110.00 L 316.50 111.00 L 316.50 112.00 L 316.50 113.00 L 316.50 114.00 L 316.50 115.00 L 316.50 116.00 L 316.50 117.00 L 316.50 118.00 L 316.50 119.00 L 316.50 120.00 L 316.50 121.00 L 316.50 122.00 L 316.50 123.00 L 316.50 124.00 L 316.50 125.00 L 316.50 126.00 L 316.50 127.00 L 316.50 128.00 L 316.50 129.00 L 316.50 130.00 L 316.50 131.00 L 316.50 132.00 L 316.50 133.00 L 316.50 134.00 L 316.50 135.00 L 316.50 136.00 L 316.50 137.00 L 316.50 138.00 L 316.50 139.00 L 316.50 140.00 L 316.50 141.00 L 316.50 142.00 L 316.50 143.00 L 316.50 144.00 L 316.50 145.00 L 316.50 146.00 L 316.50 147.00 L 316.50 148.00 L 316.50 149.00 L 316.50 150.00 L 316.50 151.00 L 316.50 152.00 L 316.50 153.00 L 316.50 154.00 L 316.50 155.00 L 316.50 156.00 L 316.50 157.00 L 316.50 158.00 L 316.50 159.00 L 316.50 160.00 L 316.50 161.00 L 316.50 162.00 L 316.50 163.00 L 316.50 164.00 L 316.50 165.00 L 316.50 166.00 L 316.50 167.00 L 316.50 168.00 L 316.50 169.00 L 316.50 170.00 L 316.50 171.00 L 316.50 172.00 L 316.50 173.00 L 316.50 174.00 L 316.50 175.00 L 316.50 176.00 L 316.50 177.00 L 316.50 178.00 L 316.50 179.00 L 316.50 180.00 L 316.50 181.00 L 316.50 182.00 L 316.50 183.00 L 316.50 184.00 L 316.50 185.00 L 316.50 186.00 L 316.50 187.00 L 316.50 188.00 L 316.50 189.00 L 316.50 190.00 L 316.50 191.00 L 316.50 192.00 L 316.50 193.00 L 316.50 194.00 L 316.50 195.00 L 316.50 196.00 L 316.50 197.00 L 316.50 198.00 L 316.50 199.00 L 316.50 200.00 L 316.50 201.00 L 316.50 202.00 L 316.50 203.00 L 316.50 204.00 L 316.50 205.00 L 316.50 206.00 L 316.50 207.00 L 316.50 208.00 L 316.50 209.00 L 316.50 210.00 L 316.50 211.00 L 316.50 212.00 L 316.50 213.00 L 316.50 214.00 L 316.50 215.00 L 316.50 216.00 L 316.50 217.00 L 316.50 218.00 L 316.50 219.00 L 316.50 220.00 L 316.50 221.00 L 316.50 222.00 L 316.50 223.00 L 316.50 224.00 L 316.50 225.00 L 316.50 226.00 L 316.50 227.00 L 316.50 228.00 L 316.50 229.00 L 316.50 230.00 L 316.50 231.00 L 316.50 232.00 L 316.50 233.00 L 316.50 234.00 L 316.50 235.00 L 316.50 236.00 L 316.50 237.00 L 316.50 238.00 L 316.50 239.00 L 316.50 240.00 L 316.50 241.00 L 316.50 242.00 L 316.50 243.00 L 316.50 244.00 L 316.50 245.00 L 316.50 246.00 L 316.50 247.00 L 316.50 248.00 L 316.50 249.00 L 316.50 250.00 L 316.50 251.00 L 316.50 252.00 L 316.50 253.00 L 316.50 254.00 L 316.50 255.00 L 316.50 256.00 L 316.50 257.00 L 316.50 258.00 L 316.50 259.00 L 316.50 260.00 L 316.50 261.00 L 316.50 262.00 L 316.50 263.00 L 316.50 264.00 L 316.50 265.00 L 316.50 266.00 L 316.50 267.00 L 316.50 268.00 L 316.50 269.00 L 316.50 270.00 L 316.50 271.00 L 316.50 272.00 L 316.50 273.00 L 316.50 274.00 L 316.50 275.00 L 316.50 276.00 L 316.50 277.00 L 316.50 278.00 L 316.50 279.00 L 316.50 280.00 L 316.50 281.00 L 316.50 282.00 L 316.50 283.00 L 316.50 284.00 L 316.50 285.00 L 316.50 286.00 L 316.50 287.00 L 316.50 288.00 L 316.50 289.00 L 316.50 290.00 L 316.50 291.00 L 316.50 292.00 L 316.50 293.00 L 316.50 294.00 L 316.50 295.00 L 316.50 296.00 L 316.50 297.00 L 316.50 298.00 L 316.50 299.00 L 316.50 300.00 L 316.50 301.00 L 316.50 302.00 L 316.50 303.00 L 316.50 304.00 L 316.50 305.00 L 316.50 306.00 L 316.50 307.00 L 316.50 308.00 L 316.50 309.00 L 316.50 310.00 L 316.50 311.00 L 316.50 312.00 L 316.50 313.00 L 316.50 314.00 L 316.50 315.00 L 316.50 316.00 L 316.50 317.00 L 316.50 318.00 L 316.50 319.00 L 316.50 320.00 L 316.50 321.00 L 316.50 322.00 L 316.50 323.00 L 316.50 324.00 L 316.50 325.00 L 316.50 326.00 L 316.50 327.00 L 316.50 328.00 L 316.50 329.00 L 316.50 330.00 L 316.50 331.00 L 316.50 332.00 L 316.50 333.00 L 316.50 334.00 L 316.50 335.00 L 316.50 336.00 L 316.50 337.00 L 316.50 338.00 L 316.50 339.00 L 316.50 340.00 L 316.50 341.00 L 316.50 342.00 L 316.50 343.00 L 316.50 344.00 L 316.50 345.00 L 316.50 346.00 L 316.50 347.00 L 316.50 348.00 L 316.50 349.00 L 316.50 350.00 L 316.50 351.00 L 316.50 352.00 L 316.50 353.00 L 316.50 354.00 L 316.50 355.00 L 316.50 356.00 L 316.50 357.00 L 316.50 358.00 L 316.50 359.00 L 316.50 360.00 L 316.50 361.00 L 316.50 362.00 L 316.50 363.00 L 316.50 364.00 L 316.50 365.00 L 316.50 366.00 L 316.50 367.00 L 316.50 368.00 L 316.50 369.00 L 316.50 370.00 L 316.50 371.00 L 316.50 372.00 L 316.50 373.00 L 316.50 374.00 L 316.50 375.00 L 316.50 376.00 L 316.50 377.00 L 317.00 377.50 L 317.50 378.00 L 317.50 379.00 L 317.50 380.00 L 317.50 381.00 L 317.50 382.00 L 317.50 383.00 L 317.50 384.00 L 317.00 384.50 L 316.50 385.00 L 316.50 386.00 L 316.50 387.00 L 316.00 387.50 L 315.50 388.00 L 315.50 389.00 L 315.50 390.00 L 315.50 391.00 L 315.50 392.00 L 316.00 392.50 L 316.50 393.00 L 317.00 393.50 L 318.00 393.50 L 319.00 393.50 L 319.50 393.00 L 320.00 392.50 L 320.50 392.00 L 321.00 391.50 L 321.50 391.00 L 322.00 390.50 L 322.50 390.00 L 323.00 389.50 L 323.50 389.00 L 324.00 388.50 L 324.50 388.00 L 325.00 387.50 L 326.00 387.50 L 326.50 387.00 L 327.00 386.50 L 327.50 386.00 L 328.00 385.50 L 328.50 385.00 L 329.00 384.50 L 329.50 384.00 L 330.00 383.50 L 330.50 383.00 L 331.00 382.50 L 331.50 382.00 L 332.00 381.50 L 332.50 381.00 L 333.00 380.50 L 334.00 380.50 L 334.50 380.00 L 335.00 379.50 L 335.50 379.00 L 335.50 378.00 L 336.00 377.50 L 336.50 377.00 L 337.00 376.50 L 337.50 376.00 L 338.00 375.50 L 339.00 375.50 L 340.00 375.50 L 340.50 375.00 L 341.00 374.50 L 342.00 374.50 L 343.00 374.50 L 343.50 374.00 L 344.00 373.50 L 344.50 373.00 L 345.00 372.50 L 345.50 372.00 L 346.00 371.50 L 346.50 371.00 L 347.00 370.50 L 347.50 370.00 L 348.00 369.50 L 348.50 369.00 L 349.00 368.50 L 349.50 368.00 L 350.00 367.50 L 351.00 367.50 L 352.00 367.50 L 352.50 367.00 L 353.00 366.50 L 353.50 366.00 L 354.00 365.50 L 354.50 365.00 L 354.50 364.00 L 355.00 363.50 L 355.50 363.00 L 356.00 362.50 L 356.50 362.00 L 357.00 361.50 L 358.00 361.50 L 358.50 361.00 L 359.00 360.50 L 359.50 360.00 L 360.00 359.50 L 360.50 359.00 L 361.00 358.50 L 361.50 358.00 L 361.50 357.00 L 362.00 356.50 L 362.50 356.00 L 363.00 355.50 L 363.50 355.00 L 364.00 354.50 L 365.00 354.50 L 365.50 354.00 L 366.00 353.50 L 366.50 353.00 L 366.50 352.00 L 367.00 351.50 L 367.50 351.00 L 368.00 350.50 L 368.50 350.00 L 369.00 349.50 L 369.50 349.00 L 370.00 348.50 L 370.50 348.00 L 371.00 347.50 L 372.00 347.50 L 372.50 347.00 L 373.00 346.50 L 373.50 346.00 L 374.00 345.50 L 375.00 345.50 L 375.50 345.00 L 376.00 344.50 L 376.50 344.00 L 377.00 343.50 L 377.50 343.00 L 378.00 342.50 L 378.50 342.00 L 379.00 341.50 L 379.50 341.00 L 380.00 340.50 L 381.00 340.50 L 381.50 340.00 L 382.00 339.50 L 383.00 339.50 L 383.50 339.00 L 384.00 338.50 L 384.50 338.00 L 385.00 337.50 L 385.50 337.00 L 386.00 336.50 L 386.50 336.00 L 387.00 335.50 L 387.50 335.00 L 388.00 334.50 L 389.00 334.50 L 389.50 334.00 L 390.00 333.50 L 391.00 333.50 L 391.50 333.00 L 392.00 332.50 L 392.50 332.00 L 392.50 331.00 L 393.00 330.50 L 393.50 330.00 L 394.00 329.50 L 395.00 329.50 L 395.50 329.00 L 396.00 328.50 L 396.50 328.00 L 397.00 327.50 L 398.00 327.50 L 398.50 327.00 L 399.00 326.50 L 399.50 326.00 L 400.00 325.50 L 400.50 325.00 L 401.00 324.50 L 401.50 324.00 L 401.50 323.00 L 402.00 322.50 L 402.50 322.00 L 403.00 321.50 L 404.00 321.50 L 404.50 321.00 L 405.00 320.50 L 406.00 320.50 L 407.00 320.50 L 407.50 320.00 L 408.00 319.50 L 409.00 319.50 L 410.00 319.50 L 411.00 319.50 L 411.50 320.00 L 412.00 320.50 L 413.00 320.50 L 414.00 320.50 L 414.50 321.00 L 415.00 321.50 L 416.00 321.50 L 416.50 322.00 L 417.00 322.50 L 417.50 323.00 L 418.00 323.50 L 418.50 324.00 L 419.00 324.50 L 420.00 324.50 L 420.50 325.00 L 421.00 325.50 L 421.50 326.00 L 422.00 326.50 L 423.00 326.50 L 424.00 326.50 L 424.50 327.00 L 425.00 327.50 L 426.00 327.50 L 427.00 327.50 L 428.00 327.50 L 429.00 327.50 L 430.00 327.50 L 431.00 327.50 L 432.00 327.50 L 433.00 327.50 L 433.50 328.00 L 434.00 328.50 L 435.00 328.50 L 435.50 329.00 L 436.00 329.50 L 436.50 330.00 L 437.00 330.50 L 437.50 331.00 L 437.50 332.00 L 438.00 332.50 L 438.50 333.00 L 439.00 333.50 L 440.00 333.50 L 441.00 333.50 L 441.50 334.00 L 442.00 334.50 L 443.00 334.50 L 444.00 334.50 L 445.00 334.50 L 446.00 334.50 L 447.00 334.50 L 448.00 334.50 L 449.00 334.50 L 450.00 334.50 L 451.00 334.50 L 452.00 334.50 L 452.50 335.00 L 453.00 335.50 L 454.00 335.50 L 455.00 335.50 L 455.50 336.00 L 456.00 336.50 L 457.00 336.50 L 457.50 337.00 L 457.50 338.00 L 457.50 339.00 L 457.50 340.00 L 457.00 340.50 L 456.50 341.00 L 456.00 341.50 L 455.00 341.50 L 454.50 342.00 L 454.00 342.50 L 453.50 343.00 L 453.00 343.50 L 452.50 344.00 L 452.50 345.00 L 452.00 345.50 L 451.50 346.00 L 451.00 346.50 L 450.50 347.00 L 450.50 348.00 L 450.00 348.50 L 449.50 349.00 L 449.00 349.50 L 448.50 350.00 L 448.00 350.50 L 447.00 350.50 L 446.50 351.00 L 446.00 351.50 L 445.00 351.50 L 444.50 352.00 L 444.00 352.50 L 443.50 353.00 L 443.00 353.50 L 442.50 354.00 L 442.50 355.00 L 442.00 355.50 L 441.50 356.00 L 441.00 356.50 L 440.50 357.00 L 440.00 357.50 L 439.00 357.50 L 438.50 358.00 L 438.00 358.50 L 437.50 359.00 L 437.00 359.50 L 436.50 360.00 L 436.00 360.50 L 435.50 361.00 L 435.00 361.50 L 434.50 362.00 L 434.00 362.50 L 433.50 363.00 L 433.00 363.50 L 432.50 364.00 L 432.00 364.50 L 431.00 364.50 L 430.50 365.00 L 430.50 366.00 L 430.00 366.50 L 429.50 367.00 L 429.00 367.50 L 428.50 368.00 L 428.00 368.50 L 427.50 369.00 L 427.00 369.50 L 426.00 369.50 L 425.50 370.00 L 425.00 370.50 L 424.50 371.00 L 424.00 371.50 L 423.00 371.50 L 422.50 372.00 L 422.00 372.50 L 421.00 372.50 L 420.50 373.00 L 420.00 373.50 L 419.50 374.00 L 419.50 375.00 L 419.00 375.50 L 418.50 376.00 L 418.00 376.50 L 417.50 377.00 L 417.00 377.50 L 416.00 377.50 L 415.50 378.00 L 415.00 378.50 L 414.00 378.50 L 413.50 379.00 L 413.00 379.50 L 412.50 380.00 L 412.00 380.50 L 411.50 381.00 L 411.00 381.50 L 410.50 382.00 L 410.00 382.50 L 409.50 383.00 L 409.00 383.50 L 408.00 383.50 L 407.50 384.00 L 407.00 384.50 L 406.00 384.50 L 405.50 385.00 L 405.00 385.50 L 404.50 386.00 L 404.50 387.00 L 404.00 387.50 L 403.50 388.00 L 403.00 388.50 L 402.50 389.00 L 402.00 389.50 L 401.50 390.00 L 401.00 390.50 L 400.00 390.50 L 399.50 391.00 L 399.00 391.50 L 398.50 392.00 L 398.00 392.50 L 397.50 393.00 L 397.00 393.50 L 396.50 394.00 L 396.00 394.50 L 395.50 395.00 L 395.00 395.50 L 394.50 396.00 L 394.00 396.50 L 393.50 397.00 L 393.00 397.50 L 392.50 398.00 L 392.00 398.50 L 391.50 399.00 L 391.00 399.50 L 390.50 400.00 L 390.00 400.50 L 389.50 401.00 L 389.00 401.50 L 388.50 402.00 L 388.00 402.50 L 387.50 403.00 L 387.00 403.50 L 386.50 404.00 L 386.00 404.50 L 385.00 404.50 L 384.50 405.00 L 384.00 405.50 L 383.50 406.00 L 383.00 406.50 L 382.50 407.00 L 382.00 407.50 L 381.50 408.00 L 381.00 408.50 L 380.50 409.00 L 380.00 409.50 L 379.50 410.00 L 379.00 410.50 L 378.00 410.50 L 377.50 411.00 L 377.00 411.50 L 376.00 411.50 L 375.50 412.00 L 375.00 412.50 L 374.00 412.50 L 373.50 413.00 L 373.00 413.50 L 372.50 414.00 L 372.00 414.50 L 371.50 415.00 L 371.00 415.50 L 370.50 416.00 L 370.00 416.50 L 369.00 416.50 L 368.50 417.00 L 368.00 417.50 L 367.00 417.50 L 366.00 417.50 L 365.50 418.00 L 365.00 418.50 L 364.50 419.00 L 364.00 419.50 L 363.50 420.00 L 363.50 421.00 L 363.00 421.50 L 362.50 422.00 L 362.00 422.50 L 361.50 423.00 L 361.00 423.50 L 360.00 423.50 L 359.50 424.00 L 359.00 424.50 L 358.50 425.00 L 358.00 425.50 L 357.50 426.00 L 357.50 427.00 L 357.00 427.50 L 356.50 428.00 L 356.50 429.00 L 356.00 429.50 L 355.50 430.00 L 355.00 430.50 L 354.50 431.00 L 354.00 431.50 L 353.00 431.50 L 352.50 432.00 L 352.00 432.50 L 351.50 433.00 L 351.00 433.50 L 350.50 434.00 L 350.00 434.50 L 349.50 435.00 L 349.00 435.50 L 348.50 436.00 L 348.00 436.50 L 347.50 437.00 L 347.00 437.50 L 346.00 437.50 L 345.50 438.00 L 345.00 438.50 L 344.00 438.50 L 343.50 439.00 L 343.00 439.50 L 342.50 440.00 L 342.00 440.50 L 341.50 441.00 L 341.00 441.50 L 340.50 442.00 L 340.00 442.50 L 339.50 443.00 L 339.00 443.50 L 338.50 444.00 L 338.00 444.50 L 337.00 444.50 L 336.50 445.00 L 336.00 445.50 L 335.50 446.00 L 335.00 446.50 L 334.50 447.00 L 334.00 447.50 L 333.50 448.00 L 333.00 448.50 L 332.50 449.00 L 332.00 449.50 L 331.50 450.00 L 331.00 450.50 L 330.00 450.50 L 329.50 451.00 L 329.00 451.50 L 328.00 451.50 L 327.50 452.00 L 327.00 452.50 L 326.50 453.00 L 326.00 453.50 L 325.50 454.00 L 325.00 454.50 L 324.50 455.00 L 324.00 455.50 L 323.50 456.00 L 323.00 456.50 L 322.50 457.00 L 322.00 457.50 L 321.00 457.50 L 320.50 458.00 L 320.00 458.50 L 319.00 458.50 L 318.50 459.00 L 318.00 459.50 L 317.00 459.50 L 316.50 460.00 L 316.50 461.00 L 316.00 461.50 L 315.50 462.00 L 315.00 462.50 L 314.50 463.00 L 314.00 463.50 L 313.50 464.00 L 313.00 464.50 L 312.00 464.50 L 311.50 465.00 L 311.00 465.50 L 310.50 466.00 L 310.00 466.50 L 309.50 467.00 L 309.50 468.00 L 309.00 468.50 L 308.50 469.00 L 308.00 469.50 L 307.50 470.00 L 307.00 470.50 L 306.00 470.50 L 305.50 471.00 L 305.00 471.50 L 304.50 472.00 L 304.00 472.50 L 303.50 473.00 L 303.50 474.00 L 303.00 474.50 L 302.50 475.00 L 302.00 475.50 L 301.50 476.00 L 301.00 476.50 L 300.50 477.00 L 300.00 477.50 L 299.50 478.00 L 299.00 478.50 L 298.00 478.50 L 297.50 479.00 L 297.00 479.50 L 296.50 480.00 L 296.00 480.50 L 295.50 481.00 L 295.00 481.50 L 294.50 482.00 L 294.00 482.50 L 293.50 483.00 L 293.00 483.50 L 292.00 483.50 L 291.50 484.00 L 291.00 484.50 L 290.00 484.50 L 289.50 485.00 L 289.00 485.50 L 288.00 485.50 L 287.50 486.00 L 287.00 486.50 L 286.50 487.00 L 286.00 487.50 L 285.50 488.00 L 285.00 488.50 L 284.50 489.00 L 284.00 489.50 L 283.50 490.00 L 283.00 490.50 L 282.00 490.50 L 281.00 490.50 L 280.50 491.00 L 280.00 491.50 L 279.00 491.50 L 278.50 492.00 L 278.00 492.50 L 277.50 493.00 L 277.00 493.50 L 276.50 494.00 L 276.50 495.00 L 276.00 495.50 L 275.50 496.00 L 275.00 496.50 L 274.50 497.00 L 274.00 497.50 L 273.00 497.50 L 272.50 498.00 L 272.00 498.50 L 271.50 499.00 L 271.50 500.00 L 271.00 500.50 L 270.50 501.00 L 270.00 501.50 L 269.50 502.00 L 269.00 502.50 L 268.50 503.00 L 268.00 503.50 L 267.50 504.00 L 267.00 504.50 Z"/>
  </g>
</svg>